/* XPM */
static char * score_xpm[] = {
"48 48 424 2",
"  	c None",
". 	c #5A594F",
"+ 	c #69675C",
"@ 	c #53524A",
"# 	c #4D4C44",
"$ 	c #656358",
"% 	c #817D6F",
"& 	c #959181",
"* 	c #A5A18F",
"= 	c #B9B49F",
"- 	c #ACA794",
"; 	c #242625",
"> 	c #67655A",
", 	c #BCB7A2",
"' 	c #CDC7B1",
") 	c #C8C3AD",
"! 	c #CAC5AE",
"~ 	c #B4AF9B",
"{ 	c #504E45",
"] 	c #626056",
"^ 	c #8B8878",
"/ 	c #837F71",
"( 	c #807E70",
"_ 	c #817E71",
": 	c #858273",
"< 	c #8D8A7A",
"[ 	c #949181",
"} 	c #9D9988",
"| 	c #A29E8C",
"1 	c #A6A18F",
"2 	c #BEB9A4",
"3 	c #C9C4AE",
"4 	c #D3CDB6",
"5 	c #D9D3BC",
"6 	c #DBD5BD",
"7 	c #D9D3BB",
"8 	c #827F70",
"9 	c #535147",
"0 	c #CBC6B0",
"a 	c #9E9A88",
"b 	c #8A8777",
"c 	c #8A8677",
"d 	c #58554B",
"e 	c #908C7C",
"f 	c #605D52",
"g 	c #C0BAA5",
"h 	c #D5D0B8",
"i 	c #8A8676",
"j 	c #4D4B41",
"k 	c #B0AB97",
"l 	c #DAD4BC",
"m 	c #D7D1BA",
"n 	c #C6C0AB",
"o 	c #938F7F",
"p 	c #080F13",
"q 	c #938F7E",
"r 	c #C5C0AA",
"s 	c #A8A390",
"t 	c #444239",
"u 	c #C4BFA9",
"v 	c #666357",
"w 	c #D0CAB3",
"x 	c #292721",
"y 	c #36342D",
"z 	c #4E4C43",
"A 	c #BAB5A0",
"B 	c #8B8778",
"C 	c #7D796B",
"D 	c #827E70",
"E 	c #636157",
"F 	c #D1CBB4",
"G 	c #797668",
"H 	c #848172",
"I 	c #A8A491",
"J 	c #807C6D",
"K 	c #ABA794",
"L 	c #918D7C",
"M 	c #908C7B",
"N 	c #393730",
"O 	c #888475",
"P 	c #A5A08E",
"Q 	c #201F1A",
"R 	c #1E2323",
"S 	c #242828",
"T 	c #A49F8D",
"U 	c #D5CFB8",
"V 	c #D8D2BB",
"W 	c #CFC9B2",
"X 	c #5A574D",
"Y 	c #646359",
"Z 	c #5B5A51",
"` 	c #30302C",
" .	c #848071",
"..	c #46433B",
"+.	c #CAC4AE",
"@.	c #C0BBA5",
"#.	c #22211C",
"$.	c #D7D1B9",
"%.	c #626055",
"&.	c #6D6A5E",
"*.	c #918D7D",
"=.	c #545349",
"-.	c #8F8B7B",
";.	c #565349",
">.	c #797568",
",.	c #BEB9A3",
"'.	c #211F1A",
").	c #A7A390",
"!.	c #9B9685",
"~.	c #4C4B43",
"{.	c #D3CEB6",
"].	c #CCC6B0",
"^.	c #393830",
"/.	c #A39E8C",
"(.	c #272620",
"_.	c #BFBAA5",
":.	c #1A2123",
"<.	c #191D1D",
"[.	c #BFB9A4",
"}.	c #C3BEA8",
"|.	c #24231E",
"1.	c #D1CCB5",
"2.	c #5E5C50",
"3.	c #696659",
"4.	c #D5CFB7",
"5.	c #494841",
"6.	c #05131A",
"7.	c #1D1C18",
"8.	c #A8A391",
"9.	c #9A9684",
"0.	c #2C2A24",
"a.	c #B2AD99",
"b.	c #918C7C",
"c.	c #ABA693",
"d.	c #6F6C60",
"e.	c #C4BFAA",
"f.	c #34322B",
"g.	c #928E7D",
"h.	c #CFCAB3",
"i.	c #45433A",
"j.	c #000000",
"k.	c #C9C3AD",
"l.	c #8E8A7A",
"m.	c #32302A",
"n.	c #151411",
"o.	c #C3BDA8",
"p.	c #1E1D18",
"q.	c #060605",
"r.	c #747063",
"s.	c #D6D0B9",
"t.	c #777366",
"u.	c #A4A08D",
"v.	c #141310",
"w.	c #615F53",
"x.	c #3B3932",
"y.	c #AFAA97",
"z.	c #000C15",
"A.	c #787467",
"B.	c #3A3830",
"C.	c #2E2D27",
"D.	c #565449",
"E.	c #CCC7B0",
"F.	c #4A483F",
"G.	c #B7B19D",
"H.	c #B6B19D",
"I.	c #C4BEA9",
"J.	c #B8B29E",
"K.	c #0D1C24",
"L.	c #6F6C5F",
"M.	c #555248",
"N.	c #6B675B",
"O.	c #676358",
"P.	c #CEC8B1",
"Q.	c #4C4A40",
"R.	c #ACA895",
"S.	c #6C695C",
"T.	c #6A675B",
"U.	c #BEB8A3",
"V.	c #141A1D",
"W.	c #494840",
"X.	c #5A574C",
"Y.	c #161511",
"Z.	c #A5A08D",
"`.	c #7E7A6C",
" +	c #3E3C34",
".+	c #514F45",
"++	c #26241F",
"@+	c #5B584E",
"#+	c #BDB8A3",
"$+	c #4D4A41",
"%+	c #434139",
"&+	c #C9C4AD",
"*+	c #081921",
"=+	c #A6A28F",
"-+	c #9A9685",
";+	c #2F2D27",
">+	c #9E9A89",
",+	c #726F61",
"'+	c #B6B19C",
")+	c #625F54",
"!+	c #524F46",
"~+	c #C6C1AB",
"{+	c #615E52",
"]+	c #BCB6A2",
"^+	c #C7C1AB",
"/+	c #B7B29E",
"(+	c #0B1419",
"_+	c #3C3C37",
":+	c #CEC8B2",
"<+	c #191814",
"[+	c #5B584D",
"}+	c #3B3931",
"|+	c #3F3D35",
"1+	c #878474",
"2+	c #959180",
"3+	c #BDB7A3",
"4+	c #7B7769",
"5+	c #57544A",
"6+	c #B1AC99",
"7+	c #807C6E",
"8+	c #948F7F",
"9+	c #35332D",
"0+	c #3D3B33",
"a+	c #4D4B42",
"b+	c #1B1A16",
"c+	c #7A7668",
"d+	c #535046",
"e+	c #D2CDB5",
"f+	c #69665A",
"g+	c #37352E",
"h+	c #292822",
"i+	c #A09B89",
"j+	c #AAA693",
"k+	c #00030A",
"l+	c #0F1416",
"m+	c #2F2E28",
"n+	c #050504",
"o+	c #0F0E0C",
"p+	c #D8D2BA",
"q+	c #787466",
"r+	c #D4CEB6",
"s+	c #D9D4BC",
"t+	c #878374",
"u+	c #5F5C51",
"v+	c #4A4940",
"w+	c #CBC5AF",
"x+	c #45433B",
"y+	c #B9B39F",
"z+	c #706D60",
"A+	c #181813",
"B+	c #B0AC98",
"C+	c #858172",
"D+	c #DAD4BD",
"E+	c #8D8979",
"F+	c #090907",
"G+	c #535249",
"H+	c #888575",
"I+	c #9C9786",
"J+	c #898575",
"K+	c #7B786A",
"L+	c #726F62",
"M+	c #33312A",
"N+	c #C5BFA9",
"O+	c #25292A",
"P+	c #0F171B",
"Q+	c #969281",
"R+	c #36352E",
"S+	c #2D2B25",
"T+	c #B1AC98",
"U+	c #00131F",
"V+	c #47463E",
"W+	c #D2CCB5",
"X+	c #C2BDA7",
"Y+	c #9B9786",
"Z+	c #827E6F",
"`+	c #6A675A",
" @	c #13130F",
".@	c #9F9A89",
"+@	c #979281",
"@@	c #001C29",
"#@	c #9D9987",
"$@	c #AEA995",
"%@	c #DAD5BD",
"&@	c #7A7769",
"*@	c #03141E",
"=@	c #ADA895",
"-@	c #B3AE9A",
";@	c #13120E",
">@	c #C7C2AC",
",@	c #504E44",
"'@	c #757265",
")@	c #5E5C52",
"!@	c #2E312F",
"~@	c #CAC5AF",
"{@	c #C2BCA7",
"]@	c #35342D",
"^@	c #656256",
"/@	c #B8B39E",
"(@	c #A09C89",
"_@	c #D4CEB7",
":@	c #4A4840",
"<@	c #636156",
"[@	c #23211C",
"}@	c #32312A",
"|@	c #B8B39F",
"1@	c #2E3130",
"2@	c #A4A08E",
"3@	c #C1BCA6",
"4@	c #CEC9B2",
"5@	c #A29D8B",
"6@	c #1B2022",
"7@	c #000E19",
"8@	c #868273",
"9@	c #25231E",
"0@	c #2D2C25",
"a@	c #AEA996",
"b@	c #141716",
"c@	c #252726",
"d@	c #313029",
"e@	c #2C2A25",
"f@	c #9C9887",
"g@	c #8D8879",
"h@	c #0E1519",
"i@	c #D2CDB6",
"j@	c #4A473E",
"k@	c #282722",
"l@	c #3A3831",
"m@	c #3A3931",
"n@	c #837F70",
"o@	c #434138",
"p@	c #BDB7A2",
"q@	c #0D151A",
"r@	c #656257",
"s@	c #858173",
"t@	c #5E5B50",
"u@	c #7C786A",
"v@	c #403E36",
"w@	c #1A1915",
"x@	c #676458",
"y@	c #C0BBA6",
"z@	c #111618",
"A@	c #646155",
"B@	c #868272",
"C@	c #545147",
"D@	c #2A2923",
"E@	c #B5B09C",
"F@	c #4E4C42",
"G@	c #C8C2AC",
"H@	c #181A1A",
"I@	c #1F1E1A",
"J@	c #928D7D",
"K@	c #CBC6AF",
"L@	c #292E2F",
"M@	c #00131E",
"N@	c #3C3A32",
"O@	c #A7A290",
"P@	c #3B3B35",
"Q@	c #00050D",
"R@	c #A7A28F",
"S@	c #888474",
"T@	c #403D36",
"U@	c #626054",
"V@	c #898576",
"W@	c #6C695D",
"X@	c #3C3D39",
"Y@	c #908D7C",
"Z@	c #010101",
"`@	c #47453C",
" #	c #D6D0B8",
".#	c #26251F",
"+#	c #969181",
"@#	c #57554A",
"##	c #94907F",
"$#	c #928E7E",
"%#	c #12110E",
"&#	c #39372F",
"*#	c #C1BCA7",
"=#	c #252724",
"-#	c #7E7B6D",
";#	c #525047",
">#	c #101C23",
",#	c #D4CFB7",
"'#	c #8E8B7B",
")#	c #A19C8A",
"!#	c #C5BFAA",
"~#	c #D7D2BA",
"{#	c #CDC8B1",
"]#	c #48473F",
"^#	c #767367",
"/#	c #1A1E1F",
"(#	c #BCB6A1",
"_#	c #989483",
":#	c #6A685B",
"<#	c #9C9886",
"[#	c #989482",
"}#	c #9A9584",
"|#	c #BBB6A1",
"1#	c #2E302C",
"2#	c #777467",
"3#	c #D2CCB6",
"4#	c #6B685C",
"5#	c #666458",
"6#	c #182024",
"7#	c #A39F8C",
"8#	c #737062",
"9#	c #C7C1AC",
"0#	c #68665A",
"a#	c #2A2B2A",
"b#	c #8B8777",
"c#	c #46443C",
"d#	c #A19C8B",
"e#	c #8B8879",
"f#	c #6F6C61",
"g#	c #57564D",
"h#	c #59584F",
"i#	c #868375",
"j#	c #9A9786",
"k#	c #B2AD9A",
"l#	c #BBB6A2",
"m#	c #2B2E2D",
"n#	c #56564D",
"o#	c #979382",
"p#	c #45453E",
"q#	c #343430",
"                                                                                                ",
"              . + @                                 # $ % & * = - ;                             ",
"          > , ' ) ! ~ { ] ^ / ( ( _ : < [ } | 1 2 3 4 5 6 6 6 6 7 8                             ",
"        9 0 a b - c d e f g 6 6 6 6 6 6 6 h i j k l 6 6 6 6 6 m n o p                           ",
"        q r f 4 r s t g u v w 6 6 6 6 6 7 a x y z w 6 6 6 7 A B C D E                           ",
"        C F G H I n J K m L M l 6 6 6 6 2 N O P Q = 6 6 6 6 l 6 6 6 2 R                         ",
"        S T U V 6 W X Y Z   ` r 6 6 6 l  ...+.@.#.T 6 6 6 6 6 6 6 6 $.%.                        ",
"            &.*.c =.          -.6 6 6 4 ;.>.7 ,.'.).6 6 6 6 6 6 6 6 6 !.                        ",
"                              ~.{.6 6 ].^.L l /.(._.6 6 6 6 6 6 6 6 6 @.:.                      ",
"                              <.[.6 6 }.|.).1.2.3.4.6 6 6 6 6 6 6 6 6 4 5.                      ",
"                              6.P 6 6 2 7.8.9.0.a.6 6 6 6 6 [.b.c.$.6 l d.                      ",
"                                *.6 6 e.(.v f.g.m 6 6 6 6 h.i.j.0.k.6 6 l.                      ",
"                                C l 6 +.m.n.l.U 6 6 6 6 6 o.p.q.r.s.6 6 P                       ",
"                                t.l 7 u.v.w.4 6 6 6 6 6 6 k.x.M 1.6 6 6 y.z.                    ",
"                                A.l ~ B.C.D.F 7 6 6 6 6 6 E.F.G.5 H.I.6 J.K.                    ",
"                                L._.M.N.-.p.O.G T W 6 6 6 P.Q.R.$.S.T.U U.V.                    ",
"                                W.X.Y.Z.`.j. +.+++@+#+6 6 W $+P l c.%+&+2 V.                    ",
"                              *+=+-+;+>+#.#.,+h.'+)+!+~+6 {.{+/.6 ]+%+^+/+(+                    ",
"                              _+:+e N !.<+[+}+3 6 I.|+1+5 $.L.2+3+4+5+w 6+j.                    ",
"                              7+l 8+9+~ 0+a+b+*.' 7 c+d+e+7 4+f+g+h+i+l j+k+                    ",
"                            l+~ 6 c.Q '+T m+n+o+*.p+q+5+r+s+t+#.u+2 $.6  .                      ",
"                            v+e+6 w+x+`.4 y+z+A+B+! i.C+l D+E+F+1 6 6 U G+                      ",
"                            H+l 6 l I+(.J+o.2 g+K+L+x.U.6 6 l.M+N+6 6 ^+O+                      ",
"                          P+/+6 6 6 U Q+R+S+F.Q F+B.c.5 6 6 F I.5 6 6 T+U+                      ",
"                          V+W+6 6 6 6 7 X+Y+Z+`+ @.@5 6 6 6 6 6 6 6 6 +@@@                      ",
"                          % l 6 6 6 6 4 #@$@m w+0+E+l 6 6 6 6 6 6 6 %@&@                        ",
"                        *@=@6 6 6 6 6 -@;@ +>@1.,@'@7 6 6 6 6 6 6 6 m )@                        ",
"                        !@~@6 6 6 6 6 {@]@^@/@b (.(@l 6 6 6 6 6 6 6 _@:@                        ",
"                        <@p+6 6 6 6 6 7 a S+[@}@Q+U 6 ].W V |@:+6 6 E.1@                        ",
"                        l.6 6 6 6 l l 6 p+A 2@3@V 6 $.G q 4@D.g.5@) k.6@                        ",
"                      7@k 6 6 6 7 #@#@V 6 6 6 6 6 6 _@^@q+8@9@0@f.a@u b@                        ",
"                      c@n 6 6 6 :+d@e@, 6 6 6 6 6 w+f@}@y z+}+g@-@h U.h@                        ",
"                      5.i@6 6 6 W+j@k@z+3 l 6 6 m G l@m@n@y.%+a+o@>@p@q@                        ",
"                      r@7 6 6 6 s.3.s@t@t@c.P.7 5 |@u@v@S+B.w@x@/.U y@z@                        ",
"                      % 6 6 6 6 4.A@#@^+B@i.C@&@-+~+X.D@t.E@F@8.6 6 G@H@                        ",
"                      -.6 6 6 6 s.f+O l V u g.I@)+U ! d J@].%+i+6 6 K@L@                        ",
"                    M@.@6 6 6 6 m 4+ .5 6 6 ) N@c.6 V O@]+p+/+].7 W+3+P@                        ",
"                    Q@R@6 6 6 3 S@T@U@h 6 6 >@%+_.6 6 6 6 6 6 _@T+V@W@X@                        ",
"                    7@5@6 6 6 Y@Z@j.`@i@6  #I .#|@6 6 6 6 6 6 6 6 6 l +#                        ",
"                      e 6 6 6 -@@#i.##l 6 $#%#&##+6 6 6 6 6 6 6 6 6 6 *#=#                      ",
"                      u@l 6 6 l h 4 7 6 l c.@#~ l 6 6 6 6 6 6 6 6 6 6 7 -#        ;#>#          ",
"                      ;#,#6 6 6 6 7 /+e -.'#)#!#W+s.m ~#m $.U i@{#~+p@6+2+]#^#} X+_@G           ",
"                      /#(#6 6 6 l _#Q+W+6 U a h+:#<#9.[#}##@<#5@).6+|#r :+s.6 6 6 6 r 1#        ",
"                        2#p+6 6 3#u+4.6 6 T B@3@4#].6 6 6 6 6 6 6 6 6 6 6 6 6 6 6 6 p+5#        ",
"                        6#7#l 6 $.8#|#l D+u.O }.L.I.6 l U W 3 ~+n 9#0 w  #l 6 6 6 6 V 0#        ",
"                          a#_#4 6 w I+E+b# .-+C+c#d#e#f#g#              h#d.i#j#k#G@l#m#        ",
"                              n#o a.3@o.#+T+o#p#                                    q#          ",
"                                                                                                "};
