/* XPM */
static char * stone_wall_xpm[] = {
"48 48 82 1",
" 	c #634038",
".	c #623F38",
"+	c #2D2B29",
"@	c #594E4B",
"#	c #584E4B",
"$	c #584D4A",
"%	c #2C2B29",
"&	c #503D38",
"*	c #613F37",
"=	c #584D4B",
"-	c #644139",
";	c #623F37",
">	c #574D4A",
",	c #2C2A28",
"'	c #503C38",
")	c #613E37",
"!	c #644039",
"~	c #654139",
"{	c #2E2C2A",
"]	c #2D2C2A",
"^	c #2E2D2B",
"/	c #2F2D2B",
"(	c #533F3A",
"_	c #65413A",
":	c #65423A",
"<	c #774C42",
"[	c #6E5048",
"}	c #5C514E",
"|	c #54403B",
"1	c #764B41",
"2	c #764C42",
"3	c #6D5048",
"4	c #523E3A",
"5	c #744A40",
"6	c #754A41",
"7	c #754B41",
"8	c #6C4E47",
"9	c #6C4F47",
"0	c #5A504D",
"a	c #513E39",
"b	c #523E39",
"c	c #734A40",
"d	c #734940",
"e	c #73493F",
"f	c #6A4D46",
"g	c #6B4D46",
"h	c #594E4C",
"i	c #5B514E",
"j	c #5B504D",
"k	c #6D4F47",
"l	c #66423A",
"m	c #523F3A",
"n	c #594F4C",
"o	c #6B4E46",
"p	c #72493F",
"q	c #6A4D45",
"r	c #6C4E46",
"s	c #5A4F4C",
"t	c #50413D",
"u	c #774C41",
"v	c #4F403C",
"w	c #4F403D",
"x	c #764B40",
"y	c #533F3B",
"z	c #4E3F3B",
"A	c #4E3F3C",
"B	c #744A3F",
"C	c #4D3F3B",
"D	c #4D3E3B",
"E	c #734A3F",
"F	c #764C41",
"G	c #754B40",
"H	c #513D39",
"I	c #513D38",
"J	c #72493E",
"K	c #73493E",
"L	c #7C5850",
"M	c #7A564E",
"N	c #79554D",
"O	c #79554E",
"P	c #694D45",
"Q	c #7B564F",
" .+@@@@#$$$$%&&&&&&&&%*********+$$$$$$$$=+ -----",
";*+$$==$$>>>,'''''''',))))))))),>>>>>>>>$+ !----",
";;+$####$$$$+&&&&&&&&%*********%$$$$$$$$=+!-~~~~",
"{++]{{{{{{{{{{{{{{{{{{{{{{]+]]]]]]]]]]]{{{^/////",
"(((({~____:::/<<<<<<<<</[[[[[[[[[/}}}}}}}}}/||||",
"(((({~~~~~~~~^111122221/3[[[[[[[[/}}}}}}}}}/||||",
"4444{!!!!!!!!{556667655{889999999{000000000{((((",
"aaab+        +ccccccdde+fgggggggg+hhhhhhhhh+aaaa",
"babb{        ]5cccccdee+fgggggggg+hhhhhhhhh+aaaa",
"{{{{{{{{{{{{{{{{{{{{{{]{{{{{{{{{{{{{{{{{{{{{{{{{",
"1^|||||||||/iiiiiiij/kkkkkkkkk/_________/1111111",
"</|||||||||/}}}}}}}}/[[[[[[[[[/lllllllll/<<<<<<<",
"7{m(((((((({jjjjjjjj{kkkkkk999{~~~~~~---{7777777",
"e+&abbbbbbb]nnnnhhhn]ooooooggg]         ]55555cc",
"p+&&aaaaaaa+@@@@@@@@+fffffqqqq+         +ddddddd",
"+++++]]]]]]]]]]]+++]]]]]]]]]+]{{{{{{{]+]{{{{{{]]",
"roo89k{~~~~~~~~{((((((((({jjjjjjjjj{117111111{kk",
"9889kk{~~~~~~~~{((((((((({jjjjjjjjj/111111111{kk",
"ofgooo{        ]abbbbbbbb{sssssssss{555555555{oo",
"fqqqff+        +aaaaaaaaa+@@@@@@@@@+ccddddddd+qq",
"offooo{        +aabbbbbbb{nnnnnnnnn]c5555555c+fg",
"{{{{{{{{{{{{{{{{{{{{{{{{{{{{{{{{{{{{{{{{{{{{{{{{",
"||/ttttttttt/[[[[[[[[/uuuuuuuuu/|||||||||/||||||",
"((^vvvvvvvww/kkkkkkkk/xxxxxxxxx^yyyyyyyyy/yyyyyy",
"bb{zzzzzzzAA{rrrrrrrr{BBBBBBBBB{444444444{444444",
"aa+CCDDDCCCC+gggggggg+EEEEEEeee+aaaaaaaaa+aaaaaa",
"aa+CCCCCCCCC+gggggggg+EEEEEEEee+aaaaaaaaa+aaaaaa",
"{{{{{{{{{{{{{{{{{{{{{{{{{{{{{{{{{{{{{{{{{{{{{{{{",
"jjjj/:::::lll/|||||||||/uuuuuFFFu/lllllllll/}}}}",
"sss0{~~~~~~~~{((((((((({GGGGGGGGG{~~~~~~~~~{jjjj",
"#$=#+        +aaHaaaaaa+eeeeeeeee+         +@@@s",
"$$$$+;;;;;;;;+&&&&&IIII+JJJJJJJJJ+;;;;;;;;;+==#@",
"#=##+........+H&&&HHHHH+KKKKKKKKK+.........+##@h",
"{{{{{{{{{{{{{{{{{{{{{{{{{{{{{{{{{{{{{{{{{{{{{{{{",
"L{((((((((({jjjjjjjj{kkkkkkkkk^jjjjjjjjj^1111111",
"M+bbbbbbbbb{ssssssss]oooorrrrr{sssssssss{5556555",
"N+IHHHHHHHH+########+qqqqqqqqq+@@@@@@@@#+eeeeeee",
"O+&IHHIIIII+########+PPqqqqqqq+#########+ppppppp",
"Q+abbbaaaaa+hhhhhhhh+ffgffffff+@@@@@@@@@+eeddddd",
"^{{{{{{{{{{{{{{{{{{{{{{{{{{{{{{{{{{{{{{{{{{{{{{{",
"[[[[[[/<<<<<<<</lllllllll/[[[[[[[[[/|||||||||/[[",
"kk3[3k^11111111^~~~~~~~~~^kkkkkkkkk^(((((((((^kk",
"rr89ro+5555ccc5]         ]ooooooooo]bbbbaaabb]oo",
"gfoofq+pppppppp+;;;;;;;;;+qqqqqqqqq+IIII&&&II+qq",
"gfoofq+pppppppp+;;;;;;;;;+qqqqqqqqq+IIII&&&II+qq",
"{{{{{]+]]]]+++]]]]]]]]]]]]]]]]]]]]]]]]]]+++]]]]]",
"__/}ijjjjjjj^((((((((^~~~~~~~~~^jjjjjjjjj^~~~~~~",
"ll/}}}}}}}}}/||||||||/lllllllll/}}}}}}}}}/llllll"};
